# xmcd
#
# Track frame offsets:
#	150
#	25700
#	56000
#	93482
#	127880
#	153320
#	175973
#	207124
#	248395
#
# Disc length: 4019 seconds
#
# Revision: 0
# Processed by: cddbd v1.5.2PL0 Copyright (c) Steve Scherf et al.
# Submitted via: EasyCDDAExtractor 9.0.0.1
#
DISCID=670fb109
DTITLE=Ruben Blades - Live!
DYEAR=1990
DGENRE=Country
TTITLE0=Decisiones
TTITLE1=Cuentas del alma
TTITLE2=El padre Antonio y el monaguillo Andrés
TTITLE3=Pedro Navaja
TTITLE4=Todos vuelven
TTITLE5=La canción del final del mundo
TTITLE6=Ojos de perro azul
TTITLE7=Buscando América
TTITLE8=Muévete
EXTD=
EXTT0=
EXTT1=
EXTT2=
EXTT3=
EXTT4=
EXTT5=
EXTT6=
EXTT7=
EXTT8=
PLAYORDER=
